HIERARCHY
ROOT Hips
{
	OFFSET 0.00 0.00 0.00
	CHANNELS 6 Xposition Yposition Zposition Xrotation Yrotation Zrotation
	JOINT Spine
	{
		OFFSET 0.00000 7.50895 0.00000
		CHANNELS 3 Xrotation Yrotation Zrotation
		JOINT Head
		{
			OFFSET 0.00000 13.86115 0.00000
			CHANNELS 3 Xrotation Yrotation Zrotation
			End Site
			{
				OFFSET 0.00000 4.52755 0.00000
			}
		}
		JOINT LeftShoulder
		{
			OFFSET 0.00000 8.20478 0.00000
			CHANNELS 3 Xrotation Yrotation Zrotation
			JOINT LeftArm
			{
				OFFSET 6.63596 0.00000 0.00000
				CHANNELS 3 Xrotation Yrotation Zrotation
				JOINT LeftForeArm
				{
					OFFSET 10.27422 0.00000 0.00000
					CHANNELS 3 Yrotation Zrotation Xrotation
					JOINT LeftHand
					{
						OFFSET 8.52215 0.00000 0.00000
						CHANNELS 3 Xrotation Yrotation Zrotation
						JOINT LeftHandThumb1
						{
							OFFSET 0.00000 0.00000 0.00000
							CHANNELS 3 Xrotation Zrotation Yrotation
							End Site
							{
								OFFSET 0.00000 0.00000 3.93700
							}
						}
						End Site
						{
							OFFSET 3.93700 0.00000 0.00000
						}
					}
				}
			}
		}
		JOINT RightShoulder
		{
			OFFSET 0.00000 8.20478 0.00000
			CHANNELS 3 Xrotation Yrotation Zrotation
			JOINT RightArm
			{
				OFFSET -6.63596 0.00000 0.00000
				CHANNELS 3 Xrotation Yrotation Zrotation
				JOINT RightForeArm
				{
					OFFSET -10.27422 0.00000 0.00000
					CHANNELS 3 Yrotation Zrotation Xrotation
					JOINT RightHand
					{
						OFFSET -8.52215 0.00000 0.00000
						CHANNELS 3 Xrotation Yrotation Zrotation
						JOINT RightHandThumb1
						{
							OFFSET 0.00000 0.00000 0.00000
							CHANNELS 3 Xrotation Zrotation Yrotation
							End Site
							{
								OFFSET 0.00000 0.00000 3.93700
							}
						}
						End Site
						{
							OFFSET -3.93700 0.00000 0.00000
						}
					}
				}
			}
		}
	}
	JOINT LeftUpLeg
	{
		OFFSET 3.00056 0.00000 0.00000
		CHANNELS 3 Xrotation Yrotation Zrotation
		JOINT LeftLeg
		{
			OFFSET 0.00000 -16.49085 0.00000
			CHANNELS 3 Xrotation Yrotation Zrotation
			JOINT LeftFoot
			{
				OFFSET 0.00000 -14.55658 0.00000
				CHANNELS 3 Xrotation Yrotation Zrotation
				JOINT LeftToeBase
				{
					OFFSET 0.00000 -1.25038 4.66650
					CHANNELS 3 Xrotation Yrotation Zrotation
					End Site
					{
						OFFSET 0.00000 0.00000 2.95275
					}
				}
			}
		}
	}
	JOINT RightUpLeg
	{
		OFFSET -3.00056 0.00000 0.00000
		CHANNELS 3 Xrotation Yrotation Zrotation
		JOINT RightLeg
		{
			OFFSET 0.00000 -16.49085 0.00000
			CHANNELS 3 Xrotation Yrotation Zrotation
			JOINT RightFoot
			{
				OFFSET 0.00000 -14.55658 0.00000
				CHANNELS 3 Xrotation Yrotation Zrotation
				JOINT RightToeBase
				{
					OFFSET 0.00000 -1.25038 4.66650
					CHANNELS 3 Xrotation Yrotation Zrotation
					End Site
					{
						OFFSET 0.00000 0.00000 2.95275
					}
				}
			}
		}
	}
}
MOTION
Frames: 17
Frame Time: 0.008333
 -6.3293 32.8070 -3.9319 9.4719 3.3864 -1.8436 -11.9688 4.8117 1.4729 -7.4176 -9.9205 2.3791 12.1750 16.4519 22.4581 -28.4742 -2.7778 -27.7598 -14.7610 0.0000 15.0165 2.9817 28.6047 -6.2092 33.1476 -0.0000 26.2537 -23.3395 -7.8007 -31.1040 -5.5266 -12.1832 30.3175 15.8225 -0.0000 30.5876 2.5399 -11.9901 12.0529 32.8623 0.0000 -24.3270 -3.4043 7.3283 5.1907 -2.0019 -0.0000 -0.0000 -8.3149 13.7438 -13.9123 11.8203 -0.0000 0.0000 -5.2618 -10.0515 -1.8929 1.4484 -0.0000 -0.0000 -8.0913 0.0559 -14.9210 -0.0092 0.0000 0.0000
 -6.3298 32.8071 -3.9317 9.4657 3.3894 -1.8431 -11.9708 4.8161 1.4692 -7.3996 -9.9091 2.4065 12.1936 16.4640 22.4535 -28.4434 -2.8270 -27.7624 -14.7391 0.0000 14.9736 2.9903 28.6291 -6.2222 33.1476 -0.0000 26.2537 -23.3326 -7.7982 -31.0890 -5.5516 -12.2087 30.3130 15.8178 -0.0000 30.5805 2.5289 -11.9617 12.0296 32.8623 0.0000 -24.3270 -3.3960 7.3236 5.1883 -2.0044 -0.0000 -0.0000 -8.3261 13.7602 -13.8740 11.8606 -0.0000 -0.0000 -5.2571 -10.0432 -1.8919 1.4556 -0.0000 0.0000 -8.1016 0.0500 -14.9443 0.0417 -0.0000 -0.0000
 -6.3304 32.8070 -3.9318 9.4634 3.3964 -1.8436 -11.9751 4.8157 1.4677 -7.3895 -9.9143 2.4173 12.1957 16.4627 22.4574 -28.4302 -2.8302 -27.7730 -14.7287 0.0000 14.9541 2.9607 28.5838 -6.1699 33.1476 -0.0000 26.2537 -23.3175 -7.8036 -31.0853 -5.5834 -12.2332 30.3239 15.8327 -0.0000 30.5984 2.5344 -11.9762 12.0412 32.8623 0.0000 -24.3270 -3.3953 7.3220 5.1887 -2.0061 -0.0000 -0.0000 -8.3023 13.7454 -13.8903 11.7516 0.0000 0.0000 -5.2524 -10.0555 -1.8901 1.4518 0.0000 0.0000 -8.1001 0.0553 -14.9342 0.0503 0.0000 -0.0000
 -6.3312 32.8068 -3.9318 9.4608 3.4011 -1.8441 -11.9759 4.8224 1.4669 -7.3888 -9.9246 2.4242 12.4224 16.5953 22.3528 -28.7325 -2.8902 -27.7658 -14.7234 0.0000 15.0207 3.0143 28.5862 -6.2804 33.1476 -0.0000 26.2537 -23.3188 -7.8118 -31.0914 -5.5974 -12.2412 30.3397 15.8287 -0.0000 30.5883 2.5363 -11.9885 12.0383 32.8623 0.0000 -24.3270 -3.3906 7.3164 5.1923 -2.0142 0.0000 -0.0000 -8.3225 13.7326 -13.9084 11.8578 -0.0000 -0.0000 -5.2492 -10.0502 -1.8889 1.4546 0.0000 0.0000 -8.1032 0.0448 -14.9360 0.0373 0.0000 -0.0000
 -6.3312 32.8067 -3.9327 9.4627 3.4042 -1.8479 -11.9809 4.8131 1.4742 -7.3851 -9.9051 2.4325 12.4438 16.6169 22.3422 -28.7463 -2.8919 -27.7763 -14.7320 0.0000 14.9998 3.0359 28.6080 -6.3206 33.1476 -0.0000 26.2537 -23.3438 -7.7949 -31.1008 -5.5696 -12.2252 30.3692 15.8172 -0.0000 30.5160 2.5365 -12.0584 11.9722 32.8623 0.0000 -24.3270 -3.3954 7.3129 5.1948 -2.0141 -0.0000 -0.0000 -8.3293 13.7337 -13.8727 11.8411 -0.0000 -0.0000 -5.2513 -10.0502 -1.8851 1.4540 0.0000 -0.0000 -8.1131 0.0404 -14.9211 0.0657 -0.0000 -0.0000
 -6.3311 32.8069 -3.9335 9.4629 3.4112 -1.8493 -11.9838 4.8129 1.4745 -7.3855 -9.9218 2.4440 12.4103 16.5961 22.3441 -28.6052 -3.0016 -27.7593 -14.6018 0.0000 14.9008 2.9406 28.5458 -6.1355 33.1476 -0.0000 26.2537 -23.3312 -7.8027 -31.0865 -5.5912 -12.2333 30.3643 15.8266 -0.0000 30.5268 2.5421 -12.0652 11.9914 32.8623 0.0000 -24.3270 -3.3967 7.3088 5.1967 -2.0139 0.0000 -0.0000 -8.3235 13.7343 -13.9042 11.8658 0.0000 0.0000 -5.2554 -10.0435 -1.8863 1.4631 -0.0000 -0.0000 -8.1116 0.0267 -14.9217 0.0477 0.0000 -0.0000
 -6.3320 32.8070 -3.9340 9.4632 3.4148 -1.8526 -11.9868 4.8230 1.4752 -7.3846 -9.9380 2.4540 12.4089 16.5930 22.3512 -28.6107 -3.0051 -27.7707 -14.5899 0.0000 14.8913 2.9631 28.4909 -6.1930 33.1476 -0.0000 26.2537 -23.3361 -7.8080 -31.0868 -5.5650 -12.2209 30.3725 15.8190 -0.0000 30.4775 2.5418 -12.0631 11.9921 32.8623 0.0000 -24.3270 -3.3936 7.2869 5.2007 -2.0190 0.0000 -0.0000 -8.3237 13.7504 -13.8786 11.8578 0.0000 0.0000 -5.2574 -10.0472 -1.8829 1.4654 0.0000 -0.0000 -8.1054 0.0293 -14.9182 0.0504 -0.0000 -0.0000
 -6.3307 32.8065 -3.9340 9.4586 3.4208 -1.8417 -11.9803 4.8254 1.4665 -7.3904 -9.9420 2.4501 12.4208 16.6062 22.3505 -28.6216 -3.0093 -27.7823 -14.5907 0.0000 14.8542 2.9615 28.5114 -6.1857 33.1476 -0.0000 26.2537 -23.3317 -7.8065 -31.0772 -5.6063 -12.2621 30.3369 15.8090 -0.0000 30.6657 2.5182 -11.8123 12.1254 32.8623 0.0000 -24.3270 -3.3909 7.2986 5.1875 -2.0162 0.0000 0.0000 -8.3161 13.7317 -13.9074 11.8499 0.0000 -0.0000 -5.2533 -10.0462 -1.8979 1.4652 0.0000 0.0000 -8.1126 0.0319 -14.9039 0.0364 0.0000 0.0000
 -6.3319 32.8071 -3.9353 9.4634 3.4262 -1.8507 -11.9871 4.8212 1.4819 -7.3951 -9.9491 2.4411 12.4386 16.6056 22.3410 -28.6294 -2.9933 -27.7873 -14.6111 0.0000 14.7925 3.0283 28.6716 -6.2922 33.1476 -0.0000 26.2537 -23.3199 -7.8292 -31.0924 -5.5202 -12.1601 30.4068 15.8381 -0.0000 30.3148 2.5619 -12.2233 11.9329 32.8623 0.0000 -24.3270 -3.4033 7.2937 5.1977 -2.0098 -0.0000 -0.0000 -8.3205 13.7304 -13.8715 11.8654 0.0000 0.0000 -5.2537 -10.0317 -1.8842 1.4567 0.0000 0.0000 -8.1015 0.0038 -14.9250 0.0648 -0.0000 0.0000
 -6.3327 32.8066 -3.9317 9.4463 3.4146 -1.8581 -11.9773 4.8381 1.4944 -7.3985 -9.9527 2.4380 12.4234 16.6126 22.3497 -28.6310 -3.0008 -27.8021 -14.5981 0.0000 14.7851 3.0320 28.7135 -6.2916 33.1476 -0.0000 26.2537 -23.3023 -7.8500 -31.0907 -5.5178 -12.1374 30.4149 15.8426 -0.0000 30.2923 2.5610 -12.2249 11.9273 32.8623 0.0000 -24.3270 -3.3697 7.3134 5.2081 -2.0344 -0.0000 0.0000 -8.3144 13.7246 -13.9033 11.8827 0.0000 -0.0000 -5.2312 -10.0472 -1.8732 1.4573 0.0000 0.0000 -8.1072 0.0220 -14.9063 0.0454 0.0000 0.0000
 -6.3340 32.8069 -3.9335 9.4568 3.4251 -1.8657 -11.9810 4.8307 1.4950 -7.4177 -9.9649 2.4545 12.4190 16.6147 22.3584 -28.6574 -2.9708 -27.8082 -14.5916 0.0000 14.8523 2.9674 28.5701 -6.1864 33.1476 -0.0000 26.2537 -23.3082 -7.8558 -31.0860 -5.5007 -12.1267 30.4242 15.8477 -0.0000 30.3031 2.5531 -12.2123 11.9032 32.8623 0.0000 -24.3270 -3.3906 7.3033 5.2167 -2.0223 0.0000 0.0000 -8.3158 13.7300 -13.9274 11.8563 -0.0000 0.0000 -5.2448 -10.0581 -1.8626 1.4556 0.0000 0.0000 -8.1277 0.0381 -14.7580 0.1579 0.0000 0.0000
 -6.3329 32.8063 -3.9339 9.4541 3.4307 -1.8532 -11.9740 4.8376 1.4792 -7.4315 -9.9834 2.4674 12.4098 16.6096 22.3810 -28.6885 -2.9170 -27.8340 -14.6409 0.0000 14.8888 3.0173 28.7574 -6.2526 33.1476 -0.0000 26.2537 -23.3018 -7.8655 -31.0829 -5.4760 -12.1163 30.4334 15.8654 -0.0000 30.2960 2.5544 -12.2224 11.8998 32.8623 0.0000 -24.3270 -3.3872 7.2987 5.2013 -2.0234 -0.0000 -0.0000 -8.3192 13.7303 -13.9029 11.8927 0.0000 0.0000 -5.2478 -10.0529 -1.8804 1.4706 0.0000 -0.0000 -8.1191 0.0182 -14.9162 0.0296 -0.0000 -0.0000
 -6.3327 32.8062 -3.9328 9.4482 3.4327 -1.8532 -11.9661 4.8294 1.4808 -7.4503 -9.9757 2.4777 12.3958 16.6088 22.3756 -28.6787 -2.9081 -27.8148 -14.6168 0.0000 14.9517 2.9700 28.5725 -6.1913 33.1476 -0.0000 26.2537 -23.2950 -7.8719 -31.0774 -5.4963 -12.1055 30.4390 15.8657 -0.0000 30.3346 2.5532 -12.2152 11.9009 32.8623 0.0000 -24.3270 -3.3769 7.3025 5.2013 -2.0301 -0.0000 -0.0000 -8.3286 13.7198 -13.8590 11.9545 -0.0000 -0.0000 -5.2388 -10.0673 -1.8804 1.4606 -0.0000 0.0000 -8.1373 0.0447 -14.7718 0.1324 0.0000 0.0000
 -6.3333 32.8067 -3.9355 9.4593 3.4443 -1.8547 -11.9647 4.8185 1.4810 -7.4766 -9.9733 2.4837 12.3943 16.6197 22.3732 -28.6787 -2.9049 -27.8087 -14.6621 0.0000 14.8337 3.0679 28.8246 -6.3432 33.1476 -0.0000 26.2537 -23.2991 -7.8571 -31.0702 -5.4696 -12.1145 30.4385 15.8887 -0.0000 30.3238 2.5667 -12.1950 11.9810 32.8623 0.0000 -24.3270 -3.3966 7.2773 5.2035 -2.0201 0.0000 0.0000 -8.3087 13.7302 -13.9006 11.8319 0.0000 0.0000 -5.2542 -10.0567 -1.8812 1.4706 -0.0000 0.0000 -8.1114 0.0143 -14.9087 0.0179 0.0000 0.0000
 -6.3342 32.8070 -3.9351 9.4572 3.4467 -1.8673 -11.9612 4.8142 1.4974 -7.4844 -9.9829 2.4816 12.4172 16.6406 22.3863 -28.6798 -2.8955 -27.8340 -14.6766 0.0000 14.8606 3.0505 28.8174 -6.3090 33.1476 -0.0000 26.2537 -23.2901 -7.8577 -31.0676 -5.4746 -12.1147 30.4417 15.8931 -0.0000 30.3395 2.5623 -12.1817 11.9736 32.8623 0.0000 -24.3270 -3.3994 7.2912 5.2181 -2.0180 0.0000 0.0000 -8.3091 13.7147 -13.9182 11.8574 -0.0000 0.0000 -5.2461 -10.0706 -1.8624 1.4572 -0.0000 -0.0000 -8.1233 0.0373 -14.8120 0.1537 0.0000 0.0000
 -6.3352 32.8076 -3.9373 9.4673 3.4598 -1.8741 -11.9646 4.8077 1.4962 -7.4937 -9.9964 2.5100 12.4231 16.6375 22.3856 -28.6668 -2.9255 -27.8166 -14.6064 0.0000 14.8608 2.9791 28.7266 -6.1799 33.1476 -0.0000 26.2537 -23.3068 -7.8422 -31.0482 -5.4606 -12.1435 30.4040 15.8698 -0.0000 30.4353 2.5151 -11.9290 11.9973 32.8623 0.0000 -24.3270 -3.4193 7.2670 5.2255 -2.0074 0.0000 0.0000 -8.3098 13.7240 -13.9074 11.8331 -0.0000 -0.0000 -5.2595 -10.0770 -1.8574 1.4632 0.0000 -0.0000 -8.1218 0.0338 -14.7910 0.1622 0.0000 -0.0000
 -6.3337 32.8064 -3.9352 9.4481 3.4457 -1.8586 -11.9365 4.8226 1.4870 -7.5203 -9.9966 2.5143 12.4246 16.6516 22.4046 -28.7402 -2.8526 -27.8366 -14.6610 0.0000 14.8463 3.0254 28.7879 -6.2632 33.1476 -0.0000 26.2537 -23.2913 -7.8480 -31.0566 -5.4715 -12.1462 30.4254 15.8788 -0.0000 30.4527 2.5178 -11.9423 11.9968 32.8623 0.0000 -24.3270 -3.3865 7.3099 5.2070 -2.0280 0.0000 0.0000 -8.3109 13.7050 -13.9111 11.8683 0.0000 0.0000 -5.2416 -10.0672 -1.8735 1.4620 0.0000 0.0000 -8.1150 0.0429 -14.8289 0.0547 -0.0000 -0.0000
